<?xml version="1.0" encoding="UTF-8"?>
<!DOCTYPE svg PUBLIC "-//W3C//DTD SVG 1.1//EN" "http://www.w3.org/Graphics/SVG/1.1/DTD/svg11.dtd">
<!-- Creator: CorelDRAW (Evaluation Version) -->
<svg xmlns="http://www.w3.org/2000/svg" xml:space="preserve" width="87.3096mm" height="22.6453mm" version="1.1" style="shape-rendering:geometricPrecision; text-rendering:geometricPrecision; image-rendering:optimizeQuality; fill-rule:evenodd; clip-rule:evenodd" viewBox="0 0 8714332 2260217" xmlns:xlink="http://www.w3.org/1999/xlink" xmlns:xodm="http://www.corel.com/coreldraw/odm/2003">
 <defs>
  <style type="text/css">
   <![CDATA[
    .fil1 {fill:black;fill-rule:nonzero}
    .fil0 {fill:#1B778B;fill-rule:nonzero}
   ]]>
  </style>
 </defs>
 <g id="Layer_x0020_1">
  <metadata id="CorelCorpID_0Corel-Layer"/>
  <g id="_105553126100288">
   <path class="fil0" d="M174407 1802780c-110140,-164117 -174407,-361590 -174407,-574085 0,-284836 115460,-542724 302133,-729388 156901,-156901 364115,-263487 595354,-293490l30332 68859c-223563,24034 -424141,124812 -574823,275504 -173639,173639 -281044,413531 -281044,678515 0,201555 62151,388589 168309,542994 -20301,16129 -42020,25901 -65854,31091zm1280636 121179l0 -31450c164875,0 250362,-62930 176922,-229712l-658913 -1496235 288509 -166562 24184 0 724398 1644911c66813,151740 181065,242068 327685,247598l0 31450 -882786 0zm-458655 -660140l0 251959 70256 0 0 -251959 251949 0 0 -70256 -251949 0 0 -251939 -70256 0 0 251939 -251939 0 0 70256 251939 0zm522962 -944198c89200,47958 170545,108663 241559,179687 186664,186664 302124,444552 302124,729388 0,87633 -10939,172710 -31500,253945l-50504 -114661c6617,-45473 10061,-91974 10061,-139284 0,-264984 -107405,-504877 -281054,-678515 -42888,-42908 -89849,-81754 -140212,-115949l-50474 -114611zm186913 1689317c-180885,156551 -416755,251281 -674742,251281 -257988,0 -493868,-94729 -674742,-251281l116069 0c157350,112865 350242,179328 558674,179328 208422,0 401324,-66463 558674,-179328l116069 0z"/>
   <path class="fil1" d="M728360 1892509l1996 31450 -602520 0 -1996 -31450c155583,0 230450,-95947 297552,-246909l130421 -293400 63898 0 -96346 216746c-92054,207085 -60954,323563 206995,323563z"/>
   <path class="fil1" d="M2701545 1507873c51212,41181 154306,60784 220409,60784 97933,0 185606,-69787 185606,-166692 0,-51202 -18954,-85926 -58798,-115569 -44615,-33167 -107335,-55285 -158647,-76085 -64207,-26040 -130002,-55175 -181344,-103522 -63798,-60065 -90188,-136200 -90188,-223693 0,-189888 191764,-296724 366491,-296724 64816,0 157629,8105 218303,28166l23835 -15371 31889 0 0 338993 -31889 0 -73889 -201505c-37459,-15221 -118963,-21679 -159875,-21679 -80926,0 -161851,58458 -161851,138266 0,52021 19213,87483 59486,117885 44894,33885 107924,56702 159665,78171 64567,26779 130631,56642 182162,105678 63928,60824 90447,137528 90447,225669 0,205039 -208412,318043 -394417,318043 -73390,0 -171802,-11947 -238335,-38996l-48517 24783 -31879 0 0 -338993 31879 0 59457 162390zm5504706 35382c39814,18185 91645,25092 138106,25092 50943,0 127097,-18545 127097,-67841 0,-65914 -100378,-92963 -154775,-113024 -117995,-43497 -217914,-96765 -217914,-228833 0,-124972 110858,-190097 227805,-213093 106656,-20970 180725,-3543 284876,21000l13734 -11907 36251 0 0 250083 -36251 0 -55065 -100568c-69677,-74787 -244254,-47549 -244254,24194 0,47010 124612,85547 163598,100758 118604,46282 224871,106706 224871,239663 0,70775 -32079,132367 -94599,174637 -65705,44435 -146461,58987 -226598,58987 -115390,0 -179098,-20042 -277331,-63659l0 -198731 36251 0 54197 103243zm-2685585 -570781l0 -189968 180426 -73889 36780 87323 0 176533 188301 0 1697 110270 -189997 0 0 392561c0,28855 2575,74328 22148,97544 16299,19353 45683,22238 69028,22238l42938 0 0 89389 -116987 0c-147988,0 -234333,-91775 -234333,-237018l-260 -364475 -100329 -240 0 -110270 100588 0zm-1286874 -291464c-31969,-1966 -67910,-240 -100309,-240l0 -109721c108703,0 209740,-5859 317794,-13235l0 1046224c20,31310 16898,47889 49565,47968l13285 30 0 32438 -62850 0 -29174 0 -159136 0 -29174 0 -62850 0 0 -32438 13285 -30c32668,-80 49545,-16658 49565,-47968l0 -923029zm1867287 401973c-31969,-1956 -67910,-240 -100319,-240l0 -109711c108703,0 209740,-5869 317794,-13245l0 644251c20,31310 16898,47889 49575,47968l13275 30 0 32438 -62850 0 -29164 0 -159146 0 -29164 0 -62850 0 0 -32438 13275 -30c32678,-80 49555,-16658 49575,-47968l0 -521056zm-2525 -267110c0,-62511 49975,-113354 111397,-113354 61423,0 111397,50843 111397,113354 0,62321 -49805,114761 -111397,114761 -61602,0 -111397,-52440 -111397,-114761zm-999114 849299c-66433,22577 -135072,37229 -205668,37229 -171263,0 -235730,-99410 -235730,-266871l-250 -382620c-20,-31310 -16898,-47889 -49565,-47958l-13275 -30 0 -32448 280285 0 0 80437 0 375513c0,78211 2745,166113 88381,166113 48078,0 87533,-10510 130301,-26290l0 -515337c-30,-31310 -16908,-47889 -49575,-47958l-13285 -30 0 -32448 280066 0 0 80437 0 551128c20,31310 16898,47889 49565,47968l13285 30 0 32438c-93292,0 -176972,3923 -271073,13494l-3463 -32797zm2428925 -673385c66443,-22587 135092,-37239 205678,-37239 171273,0 235740,99410 235740,266881l240 382610c20,31310 16898,47889 49565,47968l13285 30 0 32438 -343145 0 0 -32438 13285 -30c32668,-80 49535,-16658 49565,-47968l0 -375503c0,-78221 -2735,-166113 -88381,-166113 -48068,0 -87533,10510 -130301,26290l0 515327c30,31310 16898,47889 49575,47968l13285 30 0 32438 -342906 0 0 -32438 13265 -30c32678,-80 49555,-16658 49575,-47968l0 -551128c-20,-31310 -16898,-47889 -49575,-47958l-13265 -30 0 -32448c93292,0 176962,-3923 271063,-13494l3453 32807zm-3921148 331997c0,89699 33237,242038 145652,242038 114072,0 147059,-151022 147059,-242038 0,-95128 -27967,-240621 -147059,-240621 -118055,0 -145652,146790 -145652,240621zm-220010 0c0,-216916 152828,-369235 365662,-369235 214660,0 367060,149934 367060,369235 0,212395 -158178,370643 -367060,370643 -206985,0 -365662,-160544 -365662,-370643zm3285451 0c0,89699 33247,242038 145662,242038 114072,0 147059,-151022 147059,-242038 0,-95128 -27967,-240621 -147059,-240621 -118045,0 -145662,146790 -145662,240621zm-220000 0c0,-216916 152828,-369235 365662,-369235 214660,0 367060,149934 367060,369235 0,212395 -158178,370643 -367060,370643 -206975,0 -365662,-160544 -365662,-370643z"/>
  </g>
 </g>
<script xmlns=""/><div xmlns="" id="divScriptsUsed" style="display: none"/><script xmlns="" id="globalVarsDetection" src="moz-extension://c7f67f6c-3bbe-4000-a029-bd57a89e4f98/js/wrs_env.js"/></svg>