<?xml version="1.0" encoding="UTF-8"?>
<!DOCTYPE svg PUBLIC "-//W3C//DTD SVG 1.1//EN" "http://www.w3.org/Graphics/SVG/1.1/DTD/svg11.dtd">
<!-- Creator: CorelDRAW -->
<svg xmlns="http://www.w3.org/2000/svg" xml:space="preserve" width="6.9307mm" height="6.7006mm" version="1.1" style="shape-rendering:geometricPrecision; text-rendering:geometricPrecision; image-rendering:optimizeQuality; fill-rule:evenodd; clip-rule:evenodd"
viewBox="0 0 2480.61 2398.26"
 xmlns:xlink="http://www.w3.org/1999/xlink"
 xmlns:xodm="http://www.corel.com/coreldraw/odm/2003">
 <defs>
  <style type="text/css">
   <![CDATA[
    .fil1 {fill:#373535;fill-rule:nonzero}
    .fil0 {fill:#12647E;fill-rule:nonzero}
   ]]>
  </style>
 </defs>
 <g id="Layer_x0020_1">
  <metadata id="CorelCorpID_0Corel-Layer"/>
  <g id="_105553129363616">
   <path class="fil0" d="M185.04 1912.89c-116.86,-174.16 -185.04,-383.69 -185.04,-609.14 0,-302.26 122.51,-575.89 320.59,-773.96 166.47,-166.47 386.34,-279.57 631.72,-311.39l32.18 73.05c-237.23,25.48 -450.04,132.43 -609.93,292.31 -184.26,184.26 -298.22,438.81 -298.22,719.99 0,213.86 65.93,412.32 178.6,576.14 -21.55,17.11 -44.6,27.49 -69.9,33zm1358.87 128.56l0 -33.36c174.95,0 265.65,-66.79 187.73,-243.74l-699.15 -1587.61 306.13 -176.74 25.66 0 768.63 1745.38c70.9,160.99 192.13,256.84 347.72,262.71l0 33.36 -936.7 0zm-486.66 -700.44l0 267.33 74.55 0 0 -267.33 267.33 0 0 -74.55 -267.33 0 0 -267.33 -74.55 0 0 267.33 -267.33 0 0 74.55 267.33 0zm554.88 -1001.88c94.67,50.9 180.96,115.32 256.3,190.66 198.07,198.07 320.59,471.7 320.59,773.96 0,92.99 -11.6,183.25 -33.43,269.44l-53.58 -121.66c7.02,-48.25 10.67,-97.6 10.67,-147.78 0,-281.18 -113.96,-535.73 -298.22,-719.99 -45.49,-45.53 -95.31,-86.72 -148.75,-123.02l-53.58 -121.62zm198.32 1792.52c-191.91,166.11 -442.17,266.61 -715.94,266.61 -273.73,0 -524.03,-100.5 -715.94,-266.61l123.16 0c166.97,119.76 371.62,190.27 592.78,190.27 221.16,0 425.85,-70.51 592.78,-190.27l123.16 0z"/>
   <path class="fil1" d="M772.85 2008.09l2.11 33.36 -639.31 0 -2.11 -33.36c165.07,0 244.53,-101.83 315.72,-262l138.37 -311.32 67.79 0 -102.22 230c-97.68,219.73 -64.68,343.31 219.65,343.31z"/>
  </g>
 </g>
</svg>
