<svg width="212" height="39" viewBox="0 0 212 39" fill="none" xmlns="http://www.w3.org/2000/svg">
<path fill-rule="evenodd" clip-rule="evenodd" d="M7.80517 38.6521L2.21646 38.6835C2.07465 38.6819 1.9159 38.635 1.87053 38.4986C0.524909 34.4604 -0.536544 24.2723 0.292591 20.1643C1.10661 16.128 5.69938 14.1467 8.61654 12.8882C8.87257 12.7778 9.11569 12.6729 9.34222 12.5727C9.68485 15.9283 10.7236 17.8026 12.1098 19.5283C13.2743 20.978 14.682 21.8602 16.1354 22.2777C17.5902 22.6958 19.0883 22.6466 20.4319 22.2336C21.8533 21.7969 23.108 20.9521 23.9672 19.8211C24.0699 19.6852 24.1074 19.5283 24.0769 19.3594C24.0467 19.1897 23.9571 19.056 23.8134 18.9649L23.8088 18.962C23.5586 18.8036 23.2353 18.8624 23.0553 19.0991C22.3444 20.0362 21.2935 20.7399 20.0973 21.1076C18.9515 21.4593 17.6764 21.5021 16.4401 21.1471C15.2019 20.7913 13.9991 20.0348 12.9979 18.7887C11.6046 17.0543 10.5975 14.3764 10.4037 10.5186C10.5237 8.43964 10.9983 6.74181 13.2015 5.82594C14.2751 5.3794 15.5865 5.20064 17.0194 5.2355C20.2363 5.3148 24.0315 6.46193 27.176 8.0859C27.7718 8.39319 28.3324 8.54663 28.8473 8.58336C29.2787 8.61357 29.6771 8.56175 30.0372 8.44853C30.6613 8.608 31.3006 8.80627 31.8717 9.04873C31.9901 9.09892 32.1115 9.09545 32.2263 9.03758C32.3408 8.97993 32.4174 8.88459 32.4502 8.75838C32.4682 8.6898 32.4858 8.62124 32.5038 8.55126C32.5568 8.34718 32.463 8.1375 32.2767 8.04402C31.9992 7.9048 31.6669 7.78162 31.3071 7.6763C31.4272 7.55613 31.5369 7.42779 31.6341 7.29391C32.035 7.36528 32.4291 7.412 32.8692 7.42221C33.0969 7.42779 33.2875 7.25183 33.3053 7.02054L33.3094 6.97007C33.3187 6.84503 33.2816 6.73343 33.1987 6.64C33.1157 6.54678 33.011 6.49772 32.8878 6.49518C32.6337 6.4896 32.3646 6.45122 32.0887 6.39845C32.1535 6.1918 32.1929 5.98401 32.2056 5.78155C32.4779 1.406 26.4302 0.323663 22.9892 2.20519C22.8233 2.29561 22.4088 1.48294 22.6937 1.29929C26.1184 -0.909555 31.3861 -0.134979 34.2161 2.36442C34.7413 2.82865 35.2378 3.38166 35.6936 4.03602C36.596 5.33158 37.1455 6.73931 37.3389 8.19146C37.5334 9.65148 37.3685 11.1643 36.8401 12.6607C35.8754 15.3916 34.5416 17.345 30.8676 18.1332C30.8129 18.1453 30.7725 18.1847 30.7586 18.2399C30.7451 18.2954 30.762 18.3506 30.8045 18.3873C31.2032 18.7374 31.8739 18.9852 32.6889 19.2482C32.7837 19.2793 32.8518 19.351 32.879 19.4487C32.9063 19.5465 32.8855 19.6437 32.8204 19.7198C32.7138 19.8449 32.5922 20.0008 32.4717 20.1552C32.352 20.3088 32.2332 20.461 32.1312 20.5805C29.8737 23.2253 27.9607 25.4664 26.5139 27.9794L26.307 28.3468C25.2708 30.2254 24.5225 34.6443 24.0554 37.4027C24.0268 37.5717 23.9992 37.7345 23.9727 37.8901C23.9274 38.1561 23.7946 38.3846 23.6072 38.5456C23.4187 38.7073 23.1763 38.8026 22.9127 38.8033H17.3736C16.2012 38.8487 15.7652 33.6198 15.6255 31.9444C15.6198 31.8761 15.6146 31.8137 15.6098 31.7578C15.5936 31.567 15.586 31.3926 15.5794 31.2394C15.5555 30.6909 15.5435 30.4144 15.1881 30.6302C14.9077 30.8004 14.7178 31.1623 14.5064 31.565C14.18 32.187 13.8025 32.9062 12.9616 33.1663C12.0775 33.4395 11.5816 32.9229 11.2092 32.5349C11.0389 32.3575 10.8944 32.2069 10.7504 32.1712C9.95315 31.9735 8.58977 37.0145 8.69445 38.0198C8.7439 38.4945 7.89716 38.6638 7.80517 38.6521ZM25.9257 12.4567C25.4339 11.8346 25.5273 10.9264 26.1338 10.4278C26.7405 9.9296 27.6308 10.0294 28.1229 10.6514C28.413 11.0184 28.1217 11.0871 27.7096 11.1844C27.4235 11.252 27.0792 11.3333 26.8305 11.5375C26.5641 11.7565 26.452 12.0806 26.3684 12.3224C26.2617 12.6309 26.2013 12.8054 25.9257 12.4567Z" fill="#EB5441"/>
<path d="M27.8149 38.8024H25.0174C25.134 38.5859 25.1955 38.3885 25.2391 38.1315C25.3341 37.5742 25.4297 36.786 25.535 35.9186C25.7738 33.9502 26.062 31.5745 26.505 30.5666C26.7224 32.2856 27.498 34.4353 28.1399 36.2145C28.3731 36.8606 28.5886 37.4579 28.7533 37.9679C29.0186 38.7892 28.5421 38.8069 27.8149 38.8024Z" fill="#EB5441"/>
<path d="M121.506 28.3173V38.3811H115.898V10.6865H121.506V18.1767C121.506 19.4059 121.391 20.443 121.16 21.288H121.352C122.658 18.676 125.155 17.4085 128.074 17.4085C132.76 17.4085 135.411 20.6734 135.411 25.3212V38.3811H129.803V26.9729C129.803 23.9 128.958 21.7105 126.154 21.7105C123.004 21.7105 121.506 24.3993 121.506 28.3173Z" fill="#EB5441"/>
<path d="M53.9205 20.2125V38.3811H48.5045V11.4931H57.2239L61.7948 27.8948C62.1405 29.1239 62.5247 31.1981 62.6399 32.2352H62.832C62.9472 31.2366 63.3313 29.2392 63.7154 28.01L68.248 11.4931H76.9673V38.3811H71.5513V20.5582C71.5513 19.2138 71.5513 18.023 71.6282 16.4866H71.3593C71.1672 17.6389 70.7831 19.6363 70.4374 20.8655L65.2903 38.3811H60.0279L54.996 20.5582C54.6119 19.2138 54.2278 17.4853 54.0742 16.4866H53.8053C53.8179 16.8904 53.8347 17.3024 53.8515 17.716C53.8859 18.5613 53.9205 19.4129 53.9205 20.2125Z" fill="#EB5441"/>
<path fill-rule="evenodd" clip-rule="evenodd" d="M92.8222 34.6552C92.0156 37.0751 89.3268 38.6884 86.2923 38.6884C82.72 38.6884 79.8008 36.5373 79.8008 32.7346C79.8008 29.9306 81.3756 28.1636 83.4498 27.0497C86.4075 25.398 90.3639 25.1291 92.8606 25.0907V25.0523C92.8606 22.8245 91.0553 21.7105 88.7506 21.7105C86.4075 21.7105 83.6035 22.8629 81.6445 24.2073V19.8668C83.2962 18.676 86.2923 17.4085 89.5572 17.4085C95.0117 17.4085 98.1614 20.5198 98.1614 25.5901V32.0816L98.5071 38.3811H93.2063L92.9759 34.6552H92.8222ZM85.5241 32.2737C85.5241 33.8485 86.6764 34.6936 88.136 34.6936C90.1718 34.6936 92.8606 33.0803 92.8606 29.2392V28.2021C91.5546 28.3173 89.25 28.5478 87.7519 29.2776C86.3691 29.8922 85.5241 30.9293 85.5241 32.2737Z" fill="#EB5441"/>
<path d="M108.824 38.6499C110.783 38.6499 112.512 38.189 113.779 37.4208V33.8101C112.665 34.1942 111.743 34.3479 110.975 34.3479C109.093 34.3479 108.21 33.4644 108.21 30.7756V21.9794H113.933V17.7926H108.171V12.1077L102.601 13.0296V17.7926H99.3365V21.9794H102.601V32.1968C102.601 37.2671 105.482 38.6499 108.824 38.6499Z" fill="#EB5441"/>
<path fill-rule="evenodd" clip-rule="evenodd" d="M149.082 38.8036C152.462 38.8036 155.458 37.6128 156.879 36.6141V32.2737C155.227 33.4644 152.231 34.5015 149.696 34.5015C146.508 34.5015 143.704 32.9267 143.55 29.5849H157.839C157.878 28.5862 157.878 28.01 157.878 27.4338C157.878 21.5953 154.498 17.4085 148.352 17.4085C141.899 17.4085 137.866 21.8258 137.866 28.1636C137.866 34.5015 142.436 38.8036 149.082 38.8036ZM143.589 25.7053C143.935 22.9013 146.047 21.4417 148.429 21.4417C150.733 21.4417 152.615 22.8629 152.923 25.7053H143.589Z" fill="#EB5441"/>
<path d="M176.194 32.2352C176.194 36.1916 172.507 38.8036 167.283 38.8036C164.325 38.8036 161.06 37.8049 159.447 36.4221V32.1584C161.29 33.426 164.363 34.4631 166.937 34.4631C169.126 34.4631 170.432 33.6949 170.432 32.5425C170.432 31.1405 168.235 30.4473 166.666 29.9522L166.476 29.8922C162.059 28.5478 159.485 26.9729 159.485 23.5159C159.485 19.8668 162.75 17.4085 167.513 17.4085C169.933 17.4085 172.622 18.1383 174.389 19.1754V23.5159C172.699 22.4019 170.24 21.7489 168.243 21.7489C166.322 21.7489 165.17 22.5172 165.17 23.5543C165.17 24.8219 166.898 25.3596 168.781 25.8974C172.007 26.7808 176.194 28.2405 176.194 32.2352Z" fill="#EB5441"/>
<path fill-rule="evenodd" clip-rule="evenodd" d="M184.024 38.6884C187.058 38.6884 189.747 37.0751 190.554 34.6552H190.707L190.938 38.3811H196.238L195.893 32.0816V25.5901C195.893 20.5198 192.743 17.4085 187.289 17.4085C184.024 17.4085 181.028 18.676 179.376 19.8668V24.2073C181.335 22.8629 184.139 21.7105 186.482 21.7105C188.787 21.7105 190.592 22.8245 190.592 25.0523V25.0907C188.095 25.1291 184.139 25.398 181.181 27.0497C179.107 28.1636 177.532 29.9306 177.532 32.7346C177.532 36.5373 180.451 38.6884 184.024 38.6884ZM185.867 34.6936C184.408 34.6936 183.255 33.8485 183.255 32.2737C183.255 30.9293 184.1 29.8922 185.483 29.2776C186.981 28.5478 189.286 28.3173 190.592 28.2021V29.2392C190.592 33.0803 187.903 34.6936 185.867 34.6936Z" fill="#EB5441"/>
<path d="M205.048 29.7001V38.3811H199.439V17.7926H204.126C204.164 19.2138 204.164 20.5582 204.164 22.5556H204.356C205.009 19.5211 207.16 17.5621 209.58 17.5621C210.387 17.5621 211.309 17.7926 212 18.2151V23.0933C211.309 22.8629 210.579 22.7092 209.887 22.7092C206.776 22.7092 205.048 25.1676 205.048 29.7001Z" fill="#EB5441"/>
</svg>
