<svg width="29" height="30" viewBox="0 0 29 30" fill="none" xmlns="http://www.w3.org/2000/svg">
<path d="M2.4568 28.5014L6.53761 28.479C6.60479 28.4874 7.22306 28.3662 7.18696 28.0265C7.11056 27.3074 8.10606 23.7007 8.68823 23.8421C9.02327 23.9236 9.36198 24.839 10.3029 24.5541C11.3145 24.2476 11.4076 23.0494 11.9287 22.7396C12.2607 22.5422 12.1822 22.9211 12.2365 23.5464C12.3249 24.5673 12.6334 28.621 13.5245 28.5874H17.5692C17.7616 28.5869 17.9386 28.5187 18.0763 28.4027C18.213 28.2875 18.3101 28.1242 18.3431 27.9338C18.6784 26.0059 19.2447 22.5324 20.0476 21.1059L20.1986 20.8431C21.2551 19.045 22.652 17.4416 24.3004 15.5494C24.4499 15.3778 24.6484 15.1121 24.8036 14.9335C24.8512 14.8791 24.8663 14.8096 24.8465 14.7396C24.8266 14.6698 24.7769 14.6184 24.7077 14.5962C24.1126 14.408 23.6228 14.2307 23.3317 13.9802C23.3006 13.9539 23.2883 13.9145 23.2981 13.8748C23.3083 13.8353 23.3379 13.8071 23.3778 13.7984C26.0605 13.2344 27.0344 11.8369 27.7388 9.883C28.1247 8.81242 28.2451 7.73003 28.1031 6.68538C27.9619 5.64642 27.5606 4.63921 26.9017 3.71232C26.5689 3.24414 26.2063 2.84847 25.8228 2.51634C23.7563 0.728101 19.9099 0.173928 17.4092 1.75427C17.2011 1.88566 17.5038 2.46711 17.6249 2.40241C20.1376 1.05624 24.5537 1.83061 24.3547 4.9612C24.3454 5.10606 24.3167 5.25472 24.2694 5.40258C24.4708 5.44034 24.6674 5.46779 24.8529 5.47179C24.9428 5.4736 25.0193 5.50871 25.0799 5.5754C25.1404 5.64225 25.1675 5.72209 25.1607 5.81156L25.1577 5.84766C25.1447 6.01315 25.0055 6.13905 24.8394 6.13504C24.5179 6.12774 24.2302 6.09431 23.9374 6.04325C23.8664 6.13904 23.7864 6.23084 23.6986 6.31684C23.9614 6.39219 24.204 6.48033 24.4066 6.57993C24.5427 6.64682 24.6112 6.79684 24.5725 6.94285C24.5593 6.99291 24.5465 7.04197 24.5334 7.09103C24.5094 7.18134 24.4535 7.24954 24.3699 7.29079C24.286 7.33219 24.1974 7.33468 24.1109 7.29876C23.6939 7.1253 23.2271 6.98345 22.7714 6.86934C22.5085 6.95034 22.2176 6.98742 21.9026 6.96581C21.5265 6.93952 21.1172 6.82975 20.6821 6.6099C18.386 5.44799 15.6148 4.62723 13.2658 4.57051C12.2195 4.54555 11.262 4.67345 10.478 4.99296C8.86927 5.64823 8.52274 6.86301 8.43512 8.35039C8.57662 11.1106 9.31203 13.0265 10.3294 14.2674C11.0604 15.1591 11.9387 15.7003 12.8429 15.9549C13.7456 16.2088 14.6766 16.1782 15.5133 15.9266C16.3868 15.6635 17.1541 15.1601 17.6733 14.4895C17.8047 14.3202 18.0407 14.2781 18.2235 14.3915L18.2268 14.3935C18.3317 14.4587 18.3971 14.5543 18.4192 14.6757C18.4415 14.7967 18.4141 14.9089 18.339 15.006C17.7117 15.8153 16.7955 16.4197 15.7577 16.7321C14.7765 17.0276 13.6827 17.0629 12.6204 16.7637C11.5591 16.465 10.5311 15.8338 9.68092 14.7967C8.66868 13.5619 7.91017 12.2209 7.66003 9.82012C5.61001 10.7088 1.69863 12.1103 1.05201 15.2517C0.446579 18.1908 1.22164 25.48 2.2042 28.3695C2.23733 28.4671 2.35324 28.5003 2.4568 28.5014ZM19.9209 8.28569C19.4782 8.64245 19.41 9.29223 19.7691 9.73731C20.128 10.1824 19.9869 9.43627 20.4297 9.07968C20.8729 8.72293 21.7323 8.89042 21.3733 8.44569C21.0141 8.00061 20.364 7.92927 19.9209 8.28569ZM21.3981 20.5169C20.5073 21.7498 22.3573 26.435 22.7298 28.0217C22.9314 28.8811 22.6129 29.4112 21.1497 29.4028L21.0208 29.4023L2.04678 29.3331C1.87372 29.332 1.69973 29.2701 1.62125 29.1154C0.256093 26.4243 -0.327508 18.3362 0.182616 15.1793C0.812734 11.2832 4.96572 10.0337 7.58552 8.75571C7.74963 6.62437 7.9558 5.11036 10.1582 4.21344C11.0499 3.85019 12.1212 3.70434 13.281 3.73211C15.7573 3.79148 18.6612 4.64818 21.0562 5.85997C21.3848 6.02627 21.685 6.10843 21.9541 6.12739C22.3107 6.15184 22.6142 6.06486 22.8552 5.916C23.0972 5.76634 23.2802 5.55428 23.3929 5.32959C23.4654 5.18538 23.5074 5.03936 23.5158 4.90514C23.692 2.15027 19.5479 2.28865 17.6337 3.34975C16.9383 3.73528 16.8914 3.41893 16.8958 3.10875C16.8984 2.915 16.691 2.56406 16.567 2.52215C15.9473 2.31276 15.9733 1.58363 16.4289 1.36126C17.1504 0.850175 18.7386 0.132852 20.5995 0.0167624C22.4692 -0.0999917 24.6328 0.37966 26.3685 1.8815C26.8046 2.25904 27.2144 2.7051 27.5865 3.22883C28.3243 4.26682 28.7749 5.40126 28.9347 6.57696C29.0948 7.75631 28.9607 8.97207 28.5296 10.1692C27.5616 12.8394 26.4854 13.3964 25.4967 13.9064L25.4153 13.9393C25.6804 13.9471 25.9151 13.9782 26.0538 14.0971C26.2794 14.2914 26.3116 14.5106 26.0941 14.7646C25.7096 15.2125 25.3152 15.6652 24.9347 16.1019C23.4808 17.7711 22.3826 18.9707 21.3981 20.5169ZM19.1058 28.5874H21.1485C21.6795 28.5904 22.0275 28.5777 21.8337 27.99C21.3823 26.6204 20.4084 24.3713 20.192 22.6947C19.726 23.7337 19.4945 26.8037 19.2676 28.1071C19.2358 28.291 19.1909 28.4322 19.1058 28.5874Z" fill="#F5F3F0"/>
</svg>
