<svg width="24" height="25" viewBox="0 0 24 25" fill="none" xmlns="http://www.w3.org/2000/svg">
<path fill-rule="evenodd" clip-rule="evenodd" d="M17.8536 17.2852L17.8467 17.2949C17.8102 17.3461 17.7698 17.4429 17.7475 17.6093C17.7256 17.7725 17.7245 17.9766 17.7447 18.218C17.785 18.7013 17.9058 19.2847 18.0628 19.8956C18.2192 20.5038 18.4072 21.1229 18.5768 21.6767L18.6085 21.7803L18.6086 21.7805C18.7631 22.2847 18.9028 22.7405 18.9763 23.0584C19.0673 23.4522 19.0756 23.9144 18.7382 24.2592C18.4258 24.5784 17.9206 24.6814 17.3143 24.6779L17.2121 24.6774H17.2118L2.04067 24.6212C1.8287 24.6199 1.49986 24.5412 1.33915 24.2196C1.04136 23.6237 0.799231 22.7607 0.606458 21.7884C0.412136 20.8084 0.262507 19.6883 0.160521 18.5607C-0.042512 16.316 -0.0608832 13.9943 0.151063 12.6629C0.426931 10.9313 1.4788 9.80108 2.6883 8.98582C3.53853 8.41271 4.51195 7.96967 5.36214 7.58271C5.61602 7.46716 5.85892 7.35661 6.08426 7.24909C6.14662 6.48094 6.23494 5.75354 6.51831 5.1266C6.84425 4.40548 7.41038 3.84863 8.37311 3.45061C9.15412 3.12764 10.0712 3.00576 11.0352 3.0292C11.8537 3.04912 12.724 3.1749 13.5984 3.38248C13.5611 3.31434 13.5413 3.24744 13.5303 3.19606C13.51 3.10118 13.508 3.00641 13.5086 2.93938C13.5077 2.93603 13.5063 2.93124 13.5042 2.92503C13.4965 2.90259 13.4839 2.8741 13.4676 2.84531C13.4598 2.83136 13.4523 2.81953 13.4459 2.81002C12.6888 2.48989 12.7016 1.50776 13.3287 1.16426C13.9745 0.708599 15.3033 0.1124 16.851 0.0143882C18.4306 -0.0857413 20.2734 0.324428 21.7577 1.62822C22.131 1.95631 22.4804 2.34275 22.7964 2.79411C23.4221 3.68783 23.8075 4.66966 23.9442 5.69084C24.0812 6.71534 23.9656 7.76718 23.6005 8.79643L23.6002 8.79723C23.2005 9.91654 22.7669 10.6255 22.3069 11.1136C22.0815 11.3527 21.8548 11.5329 21.6355 11.679C21.7165 11.7832 21.7795 11.9126 21.7921 12.0685C21.8109 12.3027 21.7083 12.5013 21.5807 12.6525L21.5804 12.6528C21.2719 13.0177 20.9557 13.3862 20.6516 13.7405C20.5173 13.8971 20.3871 14.0481 20.2608 14.1946L20.2565 14.1997L20.2562 14.2C19.283 15.3294 18.5378 16.1942 17.8599 17.2751L17.8536 17.2852ZM17.104 4.70232C16.1775 4.22646 15.1552 3.81495 14.1172 3.50834C14.2031 3.47533 14.2912 3.43192 14.3812 3.38127C15.0671 2.99529 16.1874 2.76797 17.1021 2.8992C17.5561 2.96432 17.9157 3.11156 18.1486 3.32647C18.3665 3.52758 18.5068 3.81733 18.4787 4.26361L18.4787 4.26396C18.4758 4.31024 18.46 4.37617 18.4219 4.45313L18.4218 4.45338C18.3629 4.57242 18.2663 4.68597 18.1402 4.76512C17.8694 4.9319 17.3366 4.79274 17.104 4.70232Z" fill="#2B2522"/>
<path fill-rule="evenodd" clip-rule="evenodd" d="M2.37785 23.5235L5.63842 23.5053C5.69209 23.5121 6.1861 23.4139 6.15725 23.1385C6.09618 22.5554 6.89161 19.6313 7.35677 19.746C7.62444 19.812 7.89509 20.5542 8.64691 20.3232C9.45513 20.0747 9.52955 19.1033 9.94587 18.8521C10.2111 18.692 10.1485 18.9992 10.1919 19.5062C10.2625 20.3339 10.509 23.6204 11.2209 23.593H14.4526C14.6064 23.5926 14.7478 23.5373 14.8578 23.4435C14.9671 23.3501 15.0446 23.2176 15.071 23.0633C15.3389 21.5002 15.7913 18.6841 16.4329 17.5276L16.5536 17.3145C17.3977 15.8568 18.5138 14.5568 19.8309 13.0227C19.9503 12.8836 20.109 12.6682 20.233 12.5234C20.271 12.4793 20.2831 12.4229 20.2672 12.3662C20.2513 12.3095 20.2116 12.2679 20.1563 12.2499C19.6808 12.0973 19.2895 11.9536 19.0569 11.7505C19.0321 11.7292 19.0222 11.6972 19.0301 11.665C19.0382 11.633 19.0618 11.6101 19.0937 11.6031C21.2372 11.1459 22.0154 10.0128 22.5782 8.42871C22.8865 7.56075 22.9827 6.68321 22.8692 5.83627C22.7564 4.99394 22.4358 4.17735 21.9093 3.42588C21.6434 3.04631 21.3537 2.72553 21.0473 2.45625C19.3962 1.00646 16.3229 0.557165 14.3248 1.83841C14.1586 1.94494 14.4004 2.41634 14.4972 2.36389C16.5048 1.27249 20.0332 1.90031 19.8743 4.43841C19.8669 4.55585 19.8439 4.67638 19.8061 4.79625C19.9671 4.82686 20.1241 4.84912 20.2723 4.85236C20.3442 4.85383 20.4053 4.88229 20.4537 4.93636C20.5021 4.99056 20.5237 5.05529 20.5183 5.12782L20.5159 5.1571C20.5055 5.29126 20.3943 5.39333 20.2615 5.39009C20.0047 5.38417 19.7748 5.35707 19.5409 5.31567C19.4842 5.39333 19.4202 5.46777 19.3501 5.53748C19.56 5.59857 19.7539 5.67002 19.9158 5.75078C20.0245 5.805 20.0792 5.92663 20.0483 6.04501C20.0378 6.0856 20.0275 6.12537 20.017 6.16515C19.9979 6.23836 19.9532 6.29366 19.8864 6.3271C19.8194 6.36067 19.7486 6.36268 19.6795 6.33357C19.3463 6.19293 18.9733 6.07792 18.6092 5.98542C18.3991 6.05109 18.1667 6.08115 17.915 6.06363C17.6146 6.04232 17.2875 5.95332 16.9399 5.77507C15.1053 4.83307 12.8911 4.16764 11.0143 4.12166C10.1783 4.10144 9.41323 4.20513 8.78681 4.46415C7.50142 4.99541 7.22454 5.98028 7.15453 7.18616C7.26759 9.42396 7.85518 10.9773 8.66802 11.9834C9.25216 12.7062 9.95391 13.145 10.6763 13.3514C11.3976 13.5573 12.1415 13.5325 12.81 13.3285C13.5079 13.1152 14.121 12.707 14.5358 12.1634C14.6408 12.0261 14.8294 11.992 14.9754 12.0839L14.9781 12.0856C15.0619 12.1384 15.1142 12.216 15.1318 12.3144C15.1496 12.4124 15.1277 12.5034 15.0678 12.5822C14.5665 13.2383 13.8345 13.7283 13.0052 13.9816C12.2213 14.2212 11.3473 14.2497 10.4985 14.0072C9.65056 13.765 8.82925 13.2533 8.14993 12.4124C7.34114 11.4114 6.7351 10.3242 6.53523 8.37774C4.89725 9.0982 1.77208 10.2345 1.25542 12.7813C0.771684 15.1642 1.39096 21.0739 2.17603 23.4165C2.2025 23.4956 2.29511 23.5226 2.37785 23.5235ZM16.3317 7.13371C15.9779 7.42294 15.9234 7.94975 16.2103 8.3106C16.4971 8.67142 16.3844 8.06653 16.7382 7.77743C17.0923 7.4882 17.7789 7.62399 17.4922 7.26343C17.2051 6.9026 16.6857 6.84474 16.3317 7.13371ZM15.6804 23.593H17.3125C17.7368 23.5956 18.0148 23.5853 17.86 23.1089C17.4993 21.9985 16.7212 20.175 16.5483 18.8157C16.1759 19.658 15.991 22.1471 15.8097 23.2038C15.7843 23.3529 15.7484 23.4674 15.6804 23.593Z" fill="#F74B35"/>
</svg>
