<svg width="26" height="26" viewBox="0 0 26 26" fill="none" xmlns="http://www.w3.org/2000/svg">
<mask id="path-1-outside-1_2831_20220" maskUnits="userSpaceOnUse" x="0" y="-0.321167" width="26" height="27" fill="black">
<rect fill="white" y="-0.321167" width="26" height="27"/>
<path fill-rule="evenodd" clip-rule="evenodd" d="M3.3394 24.5838L6.71662 24.5652C6.77222 24.5721 7.2839 24.4719 7.25401 24.1907C7.19076 23.5956 8.01465 20.6107 8.49645 20.7278C8.77369 20.7952 9.05403 21.5528 9.83275 21.317C10.6699 21.0633 10.747 20.0718 11.1782 19.8153C11.4529 19.6519 11.388 19.9655 11.433 20.483C11.5061 21.3279 11.7614 24.6827 12.4988 24.6547H15.8462C16.0055 24.6543 16.1519 24.5979 16.2659 24.5021C16.379 24.4067 16.4594 24.2715 16.4866 24.114C16.7641 22.5185 17.2328 19.6438 17.8973 18.4633L18.0223 18.2458C18.8966 16.7578 20.0527 15.4308 21.4168 13.8648C21.5406 13.7228 21.7049 13.503 21.8333 13.3551C21.8727 13.3101 21.8852 13.2526 21.8688 13.1946C21.8523 13.1368 21.8112 13.0943 21.7539 13.076C21.2614 12.9202 20.8561 12.7735 20.6152 12.5662C20.5895 12.5444 20.5793 12.5118 20.5874 12.4789C20.5958 12.4463 20.6203 12.4229 20.6533 12.4157C22.8735 11.949 23.6795 10.7924 24.2624 9.17537C24.5818 8.28938 24.6814 7.3936 24.5639 6.52907C24.4471 5.66924 24.1149 4.83568 23.5697 4.0686C23.2943 3.68115 22.9942 3.35369 22.6768 3.07882C20.9666 1.59891 17.7834 1.14028 15.7138 2.44815C15.5416 2.55689 15.7921 3.03808 15.8923 2.98454C17.9718 1.87047 21.6265 2.51133 21.4618 5.10216C21.4541 5.22204 21.4303 5.34508 21.3912 5.46744C21.5579 5.49869 21.7206 5.5214 21.8741 5.52472C21.9485 5.52622 22.0119 5.55527 22.0619 5.61046C22.1121 5.66579 22.1345 5.73186 22.1288 5.8059L22.1264 5.83578C22.1156 5.97274 22.0004 6.07693 21.8629 6.07362C21.5969 6.06757 21.3587 6.03991 21.1165 5.99765C21.0577 6.07693 20.9915 6.15292 20.9188 6.22407C21.1363 6.28642 21.3371 6.35937 21.5048 6.4418C21.6174 6.49715 21.6741 6.62131 21.642 6.74215C21.6311 6.78358 21.6205 6.82418 21.6096 6.86478C21.5898 6.93951 21.5436 6.99596 21.4743 7.03009C21.405 7.06436 21.3316 7.06642 21.26 7.0367C20.915 6.89314 20.5286 6.77574 20.1515 6.68131C19.9339 6.74835 19.6931 6.77903 19.4324 6.76115C19.1212 6.73939 18.7825 6.64855 18.4224 6.4666C16.5222 5.50502 14.2288 4.82577 12.2848 4.77883C11.4189 4.7582 10.6265 4.86404 9.97765 5.12844C8.64627 5.67074 8.35949 6.67608 8.28697 7.907C8.40408 10.1913 9.01269 11.7769 9.85462 12.8039C10.4597 13.5418 11.1865 13.9897 11.9348 14.2004C12.6818 14.4106 13.4523 14.3852 14.1448 14.177C14.8677 13.9592 15.5027 13.5426 15.9324 12.9876C16.0411 12.8475 16.2364 12.8127 16.3877 12.9065L16.3904 12.9082C16.4773 12.9622 16.5314 13.0413 16.5497 13.1418C16.5681 13.2419 16.5454 13.3348 16.4833 13.4151C15.9642 14.0849 15.2059 14.5851 14.347 14.8436C13.535 15.0882 12.6298 15.1173 11.7506 14.8697C10.8723 14.6225 10.0216 14.1002 9.31798 13.2418C8.48026 12.22 7.85254 11.1102 7.64552 9.12334C5.94894 9.85877 2.71195 11.0187 2.17681 13.6184C1.67577 16.0508 2.3172 22.0832 3.13035 24.4745C3.15777 24.5553 3.25369 24.5829 3.3394 24.5838ZM17.1179 24.6547H18.8084C19.2479 24.6574 19.5358 24.6469 19.3755 24.1605C19.0019 23.027 18.1959 21.1657 18.0168 19.7782C17.6311 20.638 17.4395 23.1787 17.2518 24.2574C17.2255 24.4096 17.1883 24.5265 17.1179 24.6547Z"/>
<path d="M17.6668 9.0548C17.3696 8.68646 17.426 8.14871 17.7924 7.85346C18.1591 7.55849 18.6971 7.61756 18.9944 7.98588C19.2915 8.35393 18.5803 8.21532 18.2135 8.51056C17.8471 8.80567 17.9638 9.42312 17.6668 9.0548Z"/>
</mask>
<path fill-rule="evenodd" clip-rule="evenodd" d="M3.3394 24.5838L6.71662 24.5652C6.77222 24.5721 7.2839 24.4719 7.25401 24.1907C7.19076 23.5956 8.01465 20.6107 8.49645 20.7278C8.77369 20.7952 9.05403 21.5528 9.83275 21.317C10.6699 21.0633 10.747 20.0718 11.1782 19.8153C11.4529 19.6519 11.388 19.9655 11.433 20.483C11.5061 21.3279 11.7614 24.6827 12.4988 24.6547H15.8462C16.0055 24.6543 16.1519 24.5979 16.2659 24.5021C16.379 24.4067 16.4594 24.2715 16.4866 24.114C16.7641 22.5185 17.2328 19.6438 17.8973 18.4633L18.0223 18.2458C18.8966 16.7578 20.0527 15.4308 21.4168 13.8648C21.5406 13.7228 21.7049 13.503 21.8333 13.3551C21.8727 13.3101 21.8852 13.2526 21.8688 13.1946C21.8523 13.1368 21.8112 13.0943 21.7539 13.076C21.2614 12.9202 20.8561 12.7735 20.6152 12.5662C20.5895 12.5444 20.5793 12.5118 20.5874 12.4789C20.5958 12.4463 20.6203 12.4229 20.6533 12.4157C22.8735 11.949 23.6795 10.7924 24.2624 9.17537C24.5818 8.28938 24.6814 7.3936 24.5639 6.52907C24.4471 5.66924 24.1149 4.83568 23.5697 4.0686C23.2943 3.68115 22.9942 3.35369 22.6768 3.07882C20.9666 1.59891 17.7834 1.14028 15.7138 2.44815C15.5416 2.55689 15.7921 3.03808 15.8923 2.98454C17.9718 1.87047 21.6265 2.51133 21.4618 5.10216C21.4541 5.22204 21.4303 5.34508 21.3912 5.46744C21.5579 5.49869 21.7206 5.5214 21.8741 5.52472C21.9485 5.52622 22.0119 5.55527 22.0619 5.61046C22.1121 5.66579 22.1345 5.73186 22.1288 5.8059L22.1264 5.83578C22.1156 5.97274 22.0004 6.07693 21.8629 6.07362C21.5969 6.06757 21.3587 6.03991 21.1165 5.99765C21.0577 6.07693 20.9915 6.15292 20.9188 6.22407C21.1363 6.28642 21.3371 6.35937 21.5048 6.4418C21.6174 6.49715 21.6741 6.62131 21.642 6.74215C21.6311 6.78358 21.6205 6.82418 21.6096 6.86478C21.5898 6.93951 21.5436 6.99596 21.4743 7.03009C21.405 7.06436 21.3316 7.06642 21.26 7.0367C20.915 6.89314 20.5286 6.77574 20.1515 6.68131C19.9339 6.74835 19.6931 6.77903 19.4324 6.76115C19.1212 6.73939 18.7825 6.64855 18.4224 6.4666C16.5222 5.50502 14.2288 4.82577 12.2848 4.77883C11.4189 4.7582 10.6265 4.86404 9.97765 5.12844C8.64627 5.67074 8.35949 6.67608 8.28697 7.907C8.40408 10.1913 9.01269 11.7769 9.85462 12.8039C10.4597 13.5418 11.1865 13.9897 11.9348 14.2004C12.6818 14.4106 13.4523 14.3852 14.1448 14.177C14.8677 13.9592 15.5027 13.5426 15.9324 12.9876C16.0411 12.8475 16.2364 12.8127 16.3877 12.9065L16.3904 12.9082C16.4773 12.9622 16.5314 13.0413 16.5497 13.1418C16.5681 13.2419 16.5454 13.3348 16.4833 13.4151C15.9642 14.0849 15.2059 14.5851 14.347 14.8436C13.535 15.0882 12.6298 15.1173 11.7506 14.8697C10.8723 14.6225 10.0216 14.1002 9.31798 13.2418C8.48026 12.22 7.85254 11.1102 7.64552 9.12334C5.94894 9.85877 2.71195 11.0187 2.17681 13.6184C1.67577 16.0508 2.3172 22.0832 3.13035 24.4745C3.15777 24.5553 3.25369 24.5829 3.3394 24.5838ZM17.1179 24.6547H18.8084C19.2479 24.6574 19.5358 24.6469 19.3755 24.1605C19.0019 23.027 18.1959 21.1657 18.0168 19.7782C17.6311 20.638 17.4395 23.1787 17.2518 24.2574C17.2255 24.4096 17.1883 24.5265 17.1179 24.6547Z" fill="#EB5441"/>
<path d="M17.6668 9.0548C17.3696 8.68646 17.426 8.14871 17.7924 7.85346C18.1591 7.55849 18.6971 7.61756 18.9944 7.98588C19.2915 8.35393 18.5803 8.21532 18.2135 8.51056C17.8471 8.80567 17.9638 9.42312 17.6668 9.0548Z" fill="white"/>
<path d="M3.3394 24.5838L3.32687 25.7837L3.33644 25.7838L3.346 25.7838L3.3394 24.5838ZM6.71662 24.5652L6.86523 23.3744L6.78792 23.3648L6.71002 23.3652L6.71662 24.5652ZM7.25401 24.1907L6.06074 24.3176L6.06074 24.3176L7.25401 24.1907ZM8.49645 20.7278L8.78006 19.5618L8.77966 19.5617L8.49645 20.7278ZM9.83275 21.317L10.1805 22.4655L10.1808 22.4654L9.83275 21.317ZM11.1782 19.8153L11.7915 20.8467L11.7916 20.8467L11.1782 19.8153ZM11.433 20.483L12.6285 20.3796L12.6285 20.3792L11.433 20.483ZM12.4988 24.6547V23.4547H12.4761L12.4533 23.4556L12.4988 24.6547ZM15.8462 24.6547V25.8547L15.8496 25.8547L15.8462 24.6547ZM16.2659 24.5021L17.038 25.4207L17.0392 25.4197L16.2659 24.5021ZM16.4866 24.114L15.3044 23.9083L15.3042 23.9094L16.4866 24.114ZM17.8973 18.4633L16.8569 17.8653L16.8516 17.8746L17.8973 18.4633ZM18.0223 18.2458L16.9876 17.6379L16.9819 17.6479L18.0223 18.2458ZM21.4168 13.8648L22.3216 14.653L22.3217 14.653L21.4168 13.8648ZM21.8333 13.3551L20.9299 12.5653L20.9274 12.5681L21.8333 13.3551ZM21.8688 13.1946L23.0236 12.8682L23.0227 12.865L21.8688 13.1946ZM21.7539 13.076L22.1189 11.9328L22.1159 11.9319L21.7539 13.076ZM20.6152 12.5662L21.3981 11.6566L21.3894 11.6493L20.6152 12.5662ZM20.5874 12.4789L19.4252 12.18L19.4224 12.191L20.5874 12.4789ZM20.6533 12.4157L20.4064 11.2414L20.3991 11.243L20.6533 12.4157ZM24.2624 9.17537L25.3913 9.58233L25.3913 9.58233L24.2624 9.17537ZM24.5639 6.52907L23.3748 6.69064L23.3748 6.69069L24.5639 6.52907ZM23.5697 4.0686L24.5478 3.37337L24.5478 3.37336L23.5697 4.0686ZM22.6768 3.07882L23.4624 2.1717L23.462 2.17141L22.6768 3.07882ZM15.7138 2.44815L16.3545 3.46277L16.3548 3.46257L15.7138 2.44815ZM15.8923 2.98454L16.4578 4.04293L16.459 4.0423L15.8923 2.98454ZM21.4618 5.10216L22.6594 5.1793L22.6594 5.17826L21.4618 5.10216ZM21.3912 5.46744L20.2482 5.10217L19.8345 6.39653L21.1701 6.6469L21.3912 5.46744ZM21.8741 5.52472L21.8482 6.72444L21.8499 6.72447L21.8741 5.52472ZM22.0619 5.61046L22.9514 4.80489L22.9506 4.80401L22.0619 5.61046ZM22.1288 5.8059L23.3247 5.90537L23.3254 5.89705L22.1288 5.8059ZM22.1264 5.83578L20.9305 5.73632L20.93 5.74194L22.1264 5.83578ZM21.8629 6.07362L21.8918 4.87396L21.8902 4.87392L21.8629 6.07362ZM21.1165 5.99765L21.3227 4.8155L20.5933 4.68827L20.1524 5.28315L21.1165 5.99765ZM20.9188 6.22407L20.0793 5.36661L18.6059 6.8092L20.5881 7.37758L20.9188 6.22407ZM21.5048 6.4418L20.9753 7.51866L20.9754 7.51873L21.5048 6.4418ZM21.642 6.74215L20.4821 6.4345L20.4813 6.4374L21.642 6.74215ZM21.6096 6.86478L20.4505 6.55423L20.4497 6.55734L21.6096 6.86478ZM21.4743 7.03009L20.9438 5.95374L20.9428 5.95422L21.4743 7.03009ZM21.26 7.0367L20.7991 8.14464L20.7998 8.14494L21.26 7.0367ZM20.1515 6.68131L20.443 5.51725L20.1182 5.43593L19.7982 5.53449L20.1515 6.68131ZM19.4324 6.76115L19.3488 7.95823L19.3503 7.95834L19.4324 6.76115ZM18.4224 6.4666L17.8806 7.53732L17.8813 7.53764L18.4224 6.4666ZM12.2848 4.77883L12.3138 3.57918L12.3134 3.57917L12.2848 4.77883ZM9.97765 5.12844L10.4303 6.23979L10.4305 6.23972L9.97765 5.12844ZM8.28697 7.907L7.08905 7.83643L7.08516 7.90242L7.08855 7.96844L8.28697 7.907ZM9.85462 12.8039L8.92662 13.5647L8.92667 13.5647L9.85462 12.8039ZM11.9348 14.2004L11.6095 15.3555L11.6098 15.3555L11.9348 14.2004ZM14.1448 14.177L14.4904 15.3261L14.4909 15.326L14.1448 14.177ZM15.9324 12.9876L14.9843 12.252L14.9836 12.253L15.9324 12.9876ZM16.3877 12.9065L15.7549 13.9262L15.7619 13.9305L15.7689 13.9347L16.3877 12.9065ZM16.3904 12.9082L17.0237 11.8889L17.0165 11.8844L17.0092 11.8801L16.3904 12.9082ZM16.5497 13.1418L15.3691 13.3569L15.3696 13.3593L16.5497 13.1418ZM16.4833 13.4151L17.4318 14.1503L17.433 14.1487L16.4833 13.4151ZM14.347 14.8436L14.0012 13.6945L14.0009 13.6946L14.347 14.8436ZM11.7506 14.8697L12.0759 13.7147L12.0757 13.7146L11.7506 14.8697ZM9.31798 13.2418L10.246 12.4811L10.246 12.4811L9.31798 13.2418ZM7.64552 9.12334L8.83906 8.99898L8.6695 7.37157L7.16826 8.02233L7.64552 9.12334ZM2.17681 13.6184L3.35214 13.8605L3.35217 13.8604L2.17681 13.6184ZM3.13035 24.4745L4.26671 24.0889L4.26646 24.0882L3.13035 24.4745ZM17.1179 24.6547L16.0662 24.0768L15.0891 25.8547H17.1179V24.6547ZM18.8084 24.6547L18.8157 23.4547H18.8084V24.6547ZM19.3755 24.1605L18.2358 24.5361L18.2358 24.5363L19.3755 24.1605ZM18.0168 19.7782L19.2069 19.6246L18.6625 15.4064L16.9219 19.2871L18.0168 19.7782ZM17.2518 24.2574L16.0696 24.0517L16.0693 24.0531L17.2518 24.2574ZM17.7924 7.85346L17.0402 6.91845L17.0395 6.91907L17.7924 7.85346ZM17.6668 9.0548L18.6008 8.3015L18.6007 8.30132L17.6668 9.0548ZM18.2135 8.51056L17.4611 7.57574L17.4607 7.576L18.2135 8.51056ZM18.9944 7.98588L19.9283 7.23224L19.9282 7.23216L18.9944 7.98588ZM3.346 25.7838L6.72322 25.7652L6.71002 23.3652L3.3328 23.3838L3.346 25.7838ZM6.56801 25.756C6.74888 25.7785 6.90612 25.7534 6.91912 25.7516C6.98007 25.7433 7.04105 25.7316 7.0991 25.7182C7.2124 25.6919 7.35879 25.6486 7.5121 25.5793C7.65348 25.5153 7.87851 25.3947 8.07613 25.1785C8.29654 24.9374 8.49905 24.5509 8.44729 24.0639L6.06074 24.3176C6.02392 23.9711 6.17368 23.7026 6.30481 23.5591C6.41316 23.4406 6.5124 23.3974 6.52264 23.3927C6.54482 23.3827 6.55473 23.3807 6.55739 23.3801C6.56011 23.3795 6.57224 23.3767 6.59468 23.3736C6.60544 23.3722 6.6275 23.3694 6.65777 23.3675C6.67147 23.3667 6.75561 23.3608 6.86523 23.3744L6.56801 25.756ZM8.44729 24.0639C8.45474 24.1339 8.44496 24.1363 8.46008 24.0161C8.47222 23.9197 8.49459 23.7884 8.52815 23.6285C8.59511 23.3093 8.69642 22.924 8.81359 22.5584C8.93409 22.1824 9.05519 21.8781 9.15128 21.6962C9.20411 21.5961 9.21428 21.601 9.16903 21.6483C9.14513 21.6733 9.06417 21.7543 8.92132 21.8228C8.76374 21.8984 8.5101 21.966 8.21324 21.8939L8.77966 19.5617C8.054 19.3854 7.56366 19.8546 7.43524 19.9888C7.25297 20.1792 7.12022 20.4028 7.02905 20.5754C6.83713 20.9388 6.66588 21.396 6.52808 21.826C6.38696 22.2663 6.26405 22.7316 6.17927 23.1358C6.13695 23.3375 6.10157 23.5362 6.07888 23.7164C6.05917 23.8729 6.03748 24.0988 6.06074 24.3176L8.44729 24.0639ZM8.21283 21.8938C8.02772 21.8487 7.91298 21.7656 7.88293 21.7432C7.84965 21.7183 7.83852 21.7045 7.86757 21.7333C7.8895 21.7551 8.05413 21.9295 8.20846 22.0581C8.38753 22.2072 8.65405 22.3903 9.01326 22.4901C9.38715 22.5939 9.78303 22.5858 10.1805 22.4655L9.48501 20.1685C9.48348 20.1689 9.50253 20.1631 9.53821 20.1624C9.57478 20.1616 9.61539 20.1665 9.65557 20.1776C9.73455 20.1996 9.76764 20.2333 9.74463 20.2141C9.69689 20.1743 9.69078 20.1614 9.55784 20.0295C9.50944 19.9815 9.42485 19.8994 9.32012 19.8211C9.21863 19.7452 9.03449 19.6236 8.78006 19.5618L8.21283 21.8938ZM10.1808 22.4654C11.0557 22.2003 11.4829 21.5422 11.7 21.1619C11.7543 21.0667 11.8051 20.9707 11.8411 20.9037C11.8815 20.8284 11.9071 20.7821 11.9288 20.7464C11.9857 20.653 11.9457 20.755 11.7915 20.8467L10.5648 18.7839C10.195 19.0038 9.98375 19.326 9.87873 19.4985C9.81949 19.5958 9.76649 19.694 9.72633 19.7689C9.68172 19.852 9.65003 19.9118 9.61541 19.9725C9.54692 20.0925 9.50663 20.1431 9.48392 20.1659C9.47524 20.1747 9.47322 20.175 9.47745 20.1724C9.48239 20.1693 9.48618 20.1681 9.48474 20.1686L10.1808 22.4654ZM11.7916 20.8467C11.7739 20.8572 11.6883 20.9078 11.5528 20.9411C11.4081 20.9767 11.1431 21.0066 10.8478 20.8779C10.5483 20.7472 10.3856 20.5268 10.309 20.3834C10.2393 20.2527 10.2183 20.1463 10.2136 20.1218C10.2056 20.0806 10.2086 20.0703 10.2141 20.1919C10.2181 20.2805 10.2236 20.4268 10.2375 20.5868L12.6285 20.3792C12.6199 20.2805 12.6166 20.1935 12.6116 20.0829C12.6081 20.0053 12.6016 19.8297 12.5699 19.6658C12.5573 19.6008 12.4538 18.96 11.8074 18.678C11.4788 18.5347 11.1735 18.5629 10.9796 18.6106C10.7948 18.656 10.6511 18.7326 10.5648 18.7839L11.7916 20.8467ZM10.2375 20.5865C10.2726 20.9931 10.3588 22.1004 10.5349 23.1037C10.6212 23.5955 10.7412 24.1363 10.9164 24.577C11.0017 24.7914 11.131 25.063 11.333 25.2988C11.5365 25.5365 11.9425 25.8767 12.5443 25.8539L12.4533 23.4556C12.8708 23.4397 13.1075 23.6812 13.1557 23.7375C13.2023 23.7919 13.19 23.7994 13.1465 23.69C13.0643 23.4831 12.9775 23.1377 12.8987 22.6887C12.7446 21.8104 12.6664 20.8178 12.6285 20.3796L10.2375 20.5865ZM12.4988 25.8547H15.8462V23.4547H12.4988V25.8547ZM15.8496 25.8547C16.295 25.8535 16.7124 25.6943 17.038 25.4207L15.4937 23.5835C15.5914 23.5014 15.7159 23.4551 15.8428 23.4547L15.8496 25.8547ZM17.0392 25.4197C17.3667 25.1436 17.5933 24.7567 17.6691 24.3185L15.3042 23.9094C15.3255 23.7864 15.3913 23.6698 15.4926 23.5845L17.0392 25.4197ZM17.6689 24.3196C17.8098 23.5096 17.991 22.4243 18.2187 21.3913C18.4563 20.3136 18.7097 19.4663 18.943 19.0519L16.8516 17.8746C16.4204 18.6407 16.1072 19.8211 15.875 20.8747C15.6328 21.9731 15.441 23.1229 15.3044 23.9083L17.6689 24.3196ZM18.9377 19.0612L19.0627 18.8437L16.9819 17.6479L16.8569 17.8653L18.9377 19.0612ZM19.0569 18.8537C19.8642 17.4797 20.9407 16.2382 22.3216 14.653L20.512 13.0766C19.1646 14.6233 17.929 16.0358 16.9877 17.6379L19.0569 18.8537ZM22.3217 14.653C22.4047 14.5577 22.4948 14.4441 22.5621 14.3596C22.6394 14.2625 22.6953 14.1926 22.7392 14.1421L20.9274 12.5681C20.8429 12.6655 20.7524 12.7794 20.6846 12.8647C20.6066 12.9625 20.5527 13.0298 20.512 13.0766L22.3217 14.653ZM22.7368 14.1449C23.0487 13.7881 23.1481 13.3087 23.0236 12.8682L20.7141 13.5211C20.6223 13.1964 20.6966 12.8322 20.9299 12.5653L22.7368 14.1449ZM23.0227 12.865C22.8962 12.4225 22.56 12.0737 22.1189 11.9328L21.3889 14.2192C21.0623 14.1149 20.8084 13.8512 20.715 13.5243L23.0227 12.865ZM22.1159 11.9319C21.8752 11.8557 21.6968 11.7943 21.5598 11.7361C21.4163 11.6751 21.3834 11.6441 21.398 11.6566L19.8324 13.4757C20.2936 13.8726 20.9533 14.0813 21.3919 14.2201L22.1159 11.9319ZM21.3894 11.6493C21.7218 11.9299 21.8508 12.3684 21.7523 12.7668L19.4224 12.191C19.3077 12.6552 19.4572 13.1589 19.841 13.483L21.3894 11.6493ZM21.7496 12.7778C21.6436 13.1897 21.313 13.5006 20.9076 13.5885L20.3991 11.243C19.9275 11.3452 19.5479 11.7029 19.4252 12.18L21.7496 12.7778ZM20.9002 13.5901C22.1862 13.3197 23.1688 12.8239 23.9186 12.0772C24.6531 11.3457 25.0748 10.4604 25.3913 9.58233L23.1335 8.76842C22.8672 9.50733 22.5944 10.0088 22.2251 10.3766C21.8711 10.7291 21.3406 11.045 20.4064 11.2414L20.9002 13.5901ZM25.3913 9.58233C25.7721 8.52592 25.8981 7.43534 25.753 6.36745L23.3748 6.69069C23.4647 7.35187 23.3915 8.05284 23.1335 8.76842L25.3913 9.58233ZM25.753 6.3675C25.6086 5.30517 25.1994 4.29008 24.5478 3.37337L22.5916 4.76384C23.0305 5.38128 23.2855 6.0333 23.3748 6.69064L25.753 6.3675ZM24.5478 3.37336C24.2183 2.90994 23.8541 2.51092 23.4624 2.1717L21.8912 3.98595C22.1343 4.19647 22.3702 4.45235 22.5916 4.76384L24.5478 3.37336ZM23.462 2.17141C22.3901 1.2438 20.9237 0.682262 19.4582 0.524924C17.9908 0.36739 16.3897 0.601505 15.0727 1.43373L16.3548 3.46257C17.1075 2.98693 18.1328 2.79642 19.202 2.91121C20.273 3.0262 21.2533 3.43393 21.8915 3.98624L23.462 2.17141ZM15.073 1.43353C14.5178 1.78415 14.4516 2.35571 14.4551 2.60221C14.4588 2.86854 14.5327 3.09528 14.5952 3.24339C14.659 3.3947 14.7576 3.57437 14.9007 3.73544C14.9668 3.80985 15.0993 3.9457 15.3019 4.04943C15.5071 4.15454 15.9649 4.30632 16.4578 4.04292L15.3268 1.92615C15.7947 1.67615 16.2227 1.8246 16.3957 1.91322C16.5661 2.00046 16.664 2.10665 16.6952 2.14178C16.7684 2.22428 16.7965 2.2869 16.8066 2.31101C16.8155 2.33192 16.8528 2.42132 16.8548 2.56851C16.8566 2.69588 16.8237 3.16651 16.3545 3.46277L15.073 1.43353ZM16.459 4.0423C17.201 3.64476 18.3051 3.54361 19.1748 3.80371C19.5956 3.92954 19.8812 4.11617 20.0458 4.30654C20.1904 4.47379 20.2856 4.68984 20.2642 5.02607L22.6594 5.17826C22.7204 4.21907 22.4205 3.38345 21.8612 2.73668C21.3218 2.11304 20.5947 1.72329 19.8624 1.50432C18.4261 1.0748 16.6631 1.21025 15.3256 1.92678L16.459 4.0423ZM20.2643 5.02503C20.2633 5.04041 20.2595 5.06676 20.2482 5.10217L22.5343 5.83271C22.6012 5.6234 22.6449 5.40368 22.6594 5.1793L20.2643 5.02503ZM21.1701 6.6469C21.3661 6.68364 21.6012 6.71911 21.8482 6.72444L21.9 4.325C21.84 4.3237 21.7497 4.31374 21.6123 4.28798L21.1701 6.6469ZM21.8499 6.72447C21.7348 6.72216 21.6064 6.69738 21.4783 6.63888C21.3505 6.58046 21.2489 6.50018 21.1733 6.41692L22.9506 4.80401C22.6806 4.5066 22.3056 4.33316 21.8982 4.32496L21.8499 6.72447ZM21.1725 6.41604C21.0958 6.33131 21.026 6.22156 20.9807 6.08907C20.9355 5.95668 20.9237 5.8277 20.9323 5.71475L23.3254 5.89705C23.3559 5.49603 23.2235 5.10535 22.9514 4.80489L21.1725 6.41604ZM20.933 5.70644L20.9305 5.73632L23.3222 5.93525L23.3247 5.90537L20.933 5.70644ZM20.93 5.74194C20.9691 5.24429 21.3911 4.8619 21.8918 4.87396L21.834 7.27327C22.6097 7.29196 23.2622 6.70119 23.3227 5.92963L20.93 5.74194ZM21.8902 4.87392C21.6951 4.86949 21.5177 4.84951 21.3227 4.8155L20.9103 7.1798C21.1998 7.2303 21.4987 7.26565 21.8357 7.27331L21.8902 4.87392ZM20.1524 5.28315C20.1318 5.3109 20.1074 5.33917 20.0793 5.36661L21.7583 7.08153C21.8757 6.96666 21.9836 6.84295 22.0806 6.71215L20.1524 5.28315ZM20.5881 7.37758C20.7608 7.42712 20.8903 7.47689 20.9753 7.51866L22.0343 5.36495C21.7839 5.24185 21.5118 5.14573 21.2496 5.07055L20.5881 7.37758ZM20.9754 7.51873C20.577 7.32289 20.3669 6.86889 20.4821 6.4345L22.8019 7.04979C22.9812 6.37372 22.6578 5.67142 22.0341 5.36487L20.9754 7.51873ZM20.4813 6.4374C20.47 6.48082 20.4604 6.51737 20.4505 6.55423L22.7688 7.17533C22.7806 7.13099 22.7923 7.08634 22.8027 7.04689L20.4813 6.4374ZM20.4497 6.55734C20.4807 6.44054 20.5388 6.31638 20.632 6.20253C20.7252 6.08868 20.8354 6.00716 20.9438 5.95374L22.0049 8.10645C22.3851 7.91902 22.6609 7.58221 22.7696 7.17222L20.4497 6.55734ZM20.9428 5.95422C21.0531 5.89974 21.1856 5.86234 21.3319 5.85793C21.4779 5.85354 21.6103 5.88281 21.7202 5.92845L20.7998 8.14494C21.1871 8.30574 21.6221 8.29555 22.0059 8.10596L20.9428 5.95422ZM21.721 5.92876C21.3027 5.75474 20.855 5.62042 20.443 5.51725L19.86 7.84537C20.2022 7.93107 20.5272 8.03153 20.7991 8.14464L21.721 5.92876ZM19.7982 5.53449C19.7222 5.55791 19.6291 5.57182 19.5146 5.56396L19.3503 7.95834C19.7572 7.98625 20.1455 7.93879 20.5048 7.82814L19.7982 5.53449ZM19.5161 5.56407C19.3794 5.55451 19.1953 5.51261 18.9636 5.39556L17.8813 7.53764C18.3698 7.78448 18.8631 7.92428 19.3488 7.95823L19.5161 5.56407ZM18.9642 5.39588C16.9473 4.37525 14.4783 3.63144 12.3138 3.57918L12.2558 5.97848C13.9792 6.02009 16.097 6.63479 17.8806 7.53732L18.9642 5.39588ZM12.3134 3.57917C11.3459 3.55611 10.3757 3.67043 9.52481 4.01717L10.4305 6.23972C10.8773 6.05765 11.4919 5.96028 12.2562 5.97849L12.3134 3.57917ZM9.52498 4.0171C8.62134 4.38516 7.98736 4.95618 7.59671 5.70369C7.23003 6.40534 7.1283 7.17021 7.08905 7.83643L9.4849 7.97758C9.51816 7.41287 9.59608 7.05961 9.72377 6.81528C9.82748 6.61682 10.0026 6.41401 10.4303 6.23979L9.52498 4.0171ZM7.08855 7.96844C7.21462 10.4278 7.87734 12.2848 8.92662 13.5647L10.7826 12.0431C10.148 11.2691 9.59353 9.95484 9.4854 7.84557L7.08855 7.96844ZM8.92667 13.5647C9.68529 14.4899 10.6214 15.0772 11.6095 15.3555L12.2601 13.0453C11.7516 12.9021 11.234 12.5936 10.7826 12.043L8.92667 13.5647ZM11.6098 15.3555C12.5881 15.6308 13.5915 15.5965 14.4904 15.3261L13.7992 13.0278C13.3132 13.174 12.7755 13.1903 12.2597 13.0452L11.6098 15.3555ZM14.4909 15.326C15.4251 15.0446 16.2817 14.4965 16.8812 13.7223L14.9836 12.253C14.7236 12.5887 14.3103 12.8739 13.7987 13.028L14.4909 15.326ZM16.8805 13.7233C16.6107 14.0709 16.123 14.1546 15.7549 13.9262L17.0204 11.8869C16.3498 11.4708 15.4715 11.6241 14.9843 12.252L16.8805 13.7233ZM15.7689 13.9347L15.7716 13.9363L17.0092 11.8801L17.0065 11.8784L15.7689 13.9347ZM15.7572 13.9275C15.6696 13.8731 15.579 13.793 15.5045 13.6839C15.43 13.5746 15.388 13.4602 15.3691 13.3569L17.7303 12.9267C17.6508 12.4909 17.3966 12.1205 17.0237 11.8889L15.7572 13.9275ZM15.3696 13.3593C15.3503 13.2548 15.3492 13.1317 15.3807 13.0022C15.4122 12.8729 15.4694 12.7647 15.5337 12.6815L17.433 14.1487C17.7026 13.7996 17.8103 13.3612 17.7298 12.9243L15.3696 13.3593ZM15.5349 12.6799C15.1829 13.1341 14.6442 13.501 14.0012 13.6945L14.6928 15.9927C15.7675 15.6692 16.7454 15.0357 17.4318 14.1503L15.5349 12.6799ZM14.0009 13.6946C13.3966 13.8766 12.7246 13.8973 12.0759 13.7147L11.4253 16.0248C12.535 16.3373 13.6733 16.2998 14.6931 15.9926L14.0009 13.6946ZM12.0757 13.7146C11.4349 13.5342 10.7944 13.15 10.246 12.4811L8.38995 14.0026C9.24882 15.0503 10.3097 15.7108 11.4255 16.0248L12.0757 13.7146ZM10.246 12.4811C9.53616 11.6152 9.01852 10.7214 8.83906 8.99898L6.45198 9.24769C6.68655 11.499 7.42437 12.8248 8.38997 14.0026L10.246 12.4811ZM7.16826 8.02233C6.38378 8.36238 5.01875 8.88801 3.82194 9.66543C2.62064 10.4458 1.36347 11.6178 1.00146 13.3765L3.35217 13.8604C3.5253 13.0193 4.15419 12.3115 5.12931 11.6781C6.10892 11.0418 7.21068 10.6197 8.12279 10.2243L7.16826 8.02233ZM1.00149 13.3763C0.711872 14.7823 0.765818 17.0543 0.966073 19.1747C1.16806 21.3135 1.54193 23.5307 1.99424 24.8609L4.26646 24.0882C3.90562 23.027 3.5522 21.0325 3.35544 18.9491C3.15696 16.8474 3.14071 14.8869 3.35214 13.8605L1.00149 13.3763ZM1.994 24.8602C2.14396 25.3021 2.4733 25.5425 2.72203 25.6541C2.95629 25.7591 3.17759 25.7821 3.32687 25.7837L3.35194 23.3838C3.4155 23.3845 3.54599 23.3933 3.70401 23.4642C3.87649 23.5415 4.14416 23.7278 4.26671 24.0889L1.994 24.8602ZM17.1179 25.8547H18.8084V23.4547H17.1179V25.8547ZM18.8011 25.8547C18.9023 25.8553 19.0624 25.8565 19.2186 25.8416C19.3589 25.8283 19.6436 25.7916 19.9269 25.6244C20.2807 25.4155 20.5309 25.0643 20.6006 24.6365C20.6574 24.2888 20.5797 23.9806 20.5151 23.7848L18.2358 24.5363C18.2514 24.5836 18.1979 24.4591 18.232 24.2501C18.2515 24.1304 18.2991 23.9884 18.3945 23.8501C18.4895 23.7123 18.6045 23.6181 18.7068 23.5576C18.8833 23.4535 19.0236 23.4494 18.9913 23.4524C18.9749 23.454 18.9342 23.4555 18.8157 23.4547L18.8011 25.8547ZM20.5152 23.7849C20.3363 23.2422 19.9913 22.3475 19.757 21.6715C19.49 20.9015 19.2796 20.1879 19.2069 19.6246L16.8267 19.9318C16.933 20.756 17.2152 21.6669 17.4894 22.4577C17.7962 23.3427 18.0411 23.9454 18.2358 24.5361L20.5152 23.7849ZM16.9219 19.2871C16.7671 19.6322 16.6622 20.0639 16.5842 20.454C16.5019 20.8659 16.4321 21.3261 16.3711 21.7737C16.242 22.7211 16.1593 23.5361 16.0696 24.0517L18.434 24.4632C18.532 23.9001 18.639 22.9053 18.7491 22.0977C18.8077 21.6678 18.8698 21.2643 18.9377 20.9243C19.01 20.5624 19.0737 20.3541 19.1117 20.2693L16.9219 19.2871ZM16.0693 24.0531C16.0664 24.07 16.0643 24.0797 16.0631 24.0845C16.062 24.0889 16.0618 24.089 16.0628 24.0862C16.0638 24.0831 16.0651 24.0796 16.0665 24.0765C16.0678 24.0735 16.0681 24.0734 16.0662 24.0768L18.1695 25.2327C18.3156 24.9669 18.3899 24.7189 18.4343 24.4618L16.0693 24.0531ZM17.0395 6.91907C16.1524 7.6339 16.0229 8.92837 16.7328 9.80828L18.6007 8.30132C18.7163 8.44455 18.6996 8.66352 18.5453 8.78786L17.0395 6.91907ZM16.7327 9.80811C16.7948 9.88511 16.9122 10.0226 17.082 10.139C17.2545 10.2573 17.6556 10.4669 18.1632 10.3183C18.6191 10.1848 18.8369 9.84868 18.9012 9.7421C18.9786 9.61383 19.024 9.48977 19.0395 9.44801C19.149 9.15206 19.1046 9.33367 18.9662 9.44512L17.4607 7.576C17.1838 7.79902 17.026 8.06092 16.9347 8.24999C16.8886 8.3453 16.855 8.43175 16.8319 8.49427C16.8205 8.52532 16.8103 8.55421 16.8033 8.57406C16.7952 8.59695 16.7916 8.60707 16.7887 8.61493C16.7773 8.64577 16.797 8.58394 16.8461 8.50244C16.8822 8.44262 17.0694 8.1378 17.4888 8.015C17.9598 7.87708 18.3184 8.07683 18.439 8.1595C18.5054 8.20505 18.549 8.2466 18.5687 8.26647C18.5799 8.27771 18.5879 8.28656 18.5928 8.29205C18.5977 8.29761 18.6004 8.30096 18.6008 8.3015L16.7327 9.80811ZM18.9659 9.44538C18.8832 9.51193 18.8272 9.52015 18.8786 9.50464C18.9813 9.47366 18.9397 9.49257 19.1535 9.43727C19.2177 9.42064 19.3373 9.38811 19.4646 9.33116C19.577 9.28091 19.8321 9.15334 20.0295 8.8739C20.2718 8.53085 20.3088 8.13378 20.2231 7.80202C20.1529 7.53 20.0112 7.33498 19.9283 7.23224L18.0606 8.73951C18.052 8.72879 17.953 8.60995 17.8993 8.40195C17.8694 8.28603 17.8511 8.13279 17.8789 7.95761C17.9074 7.77831 17.9773 7.61933 18.0691 7.48933C18.2359 7.25326 18.4394 7.16058 18.4845 7.14041C18.5446 7.11353 18.5813 7.10627 18.5523 7.11378C18.5231 7.12134 18.501 7.12595 18.4258 7.14362C18.3645 7.15801 18.2786 7.1788 18.1854 7.20691C18.0096 7.25995 17.7272 7.36156 17.4611 7.57574L18.9659 9.44538ZM19.9282 7.23216C19.2186 6.3531 17.9271 6.20506 17.0402 6.91845L18.5446 8.78848C18.3911 8.91192 18.1756 8.88201 18.0607 8.73959L19.9282 7.23216Z" fill="white" mask="url(#path-1-outside-1_2831_20220)"/>
</svg>
