<svg width="27" height="28" viewBox="0 0 27 28" fill="none" xmlns="http://www.w3.org/2000/svg">
<path fill-rule="evenodd" clip-rule="evenodd" d="M1.56825 27.3704L5.52252 27.3482C5.58761 27.3565 6.18672 27.2367 6.15173 26.9008C6.07767 26.1895 7.04232 22.6228 7.60642 22.7627C7.93103 22.8432 8.25926 23.7485 9.17098 23.4667C10.1511 23.1636 10.2414 21.9787 10.7463 21.6723C11.068 21.477 10.9921 21.8517 11.0447 22.4702C11.1303 23.4798 11.4293 27.4886 12.2926 27.4552H16.2118C16.3984 27.4547 16.5698 27.3872 16.7032 27.2728C16.8358 27.1589 16.9298 26.9973 16.9618 26.8091C17.2867 24.9024 17.8353 21.4674 18.6134 20.0567L18.7598 19.7968C19.7835 18.0187 21.137 16.433 22.7343 14.5617C22.8791 14.392 23.0716 14.1293 23.222 13.9527C23.2681 13.8989 23.2827 13.8301 23.2635 13.7609C23.2442 13.6917 23.196 13.641 23.129 13.619C22.5523 13.4329 22.0778 13.2576 21.7957 13.0099C21.7656 12.9839 21.7536 12.9449 21.7632 12.9056C21.773 12.8666 21.8016 12.8386 21.8403 12.8301C24.4398 12.2724 25.3836 10.8903 26.0661 8.95801C26.44 7.89929 26.5567 6.82888 26.419 5.79584C26.2822 4.76838 25.8934 3.77234 25.2549 2.85568C24.9324 2.39268 24.5811 2.0014 24.2095 1.67294C22.2072 -0.0955044 18.48 -0.643553 16.0568 0.919307C15.8553 1.04925 16.1485 1.62426 16.2659 1.56028C18.7006 0.229007 22.9797 0.994811 22.787 4.09072C22.778 4.23397 22.7501 4.38099 22.7043 4.52721C22.8995 4.56454 23.0899 4.5917 23.2696 4.59565C23.3568 4.59744 23.4309 4.63216 23.4896 4.69811C23.5483 4.76422 23.5745 4.84318 23.568 4.93165L23.5651 4.96737C23.5524 5.13101 23.4176 5.25552 23.2565 5.25156C22.9451 5.24434 22.6663 5.21129 22.3826 5.16079C22.3139 5.25552 22.2363 5.34632 22.1512 5.43135C22.4058 5.50586 22.6409 5.59302 22.8373 5.69153C22.9691 5.75766 23.0355 5.90603 22.998 6.05042C22.9852 6.09993 22.9728 6.14844 22.96 6.19697C22.9369 6.28627 22.8826 6.35372 22.8016 6.39451C22.7204 6.43546 22.6345 6.43791 22.5507 6.4024C22.1466 6.23085 21.6943 6.09057 21.2527 5.97774C20.9979 6.05784 20.7161 6.09451 20.4108 6.07314C20.0465 6.04714 19.6498 5.93858 19.2283 5.72115C17.0034 4.57212 14.3181 3.76048 12.0421 3.70436C11.0282 3.6797 10.1003 3.80618 9.34068 4.12213C7.78182 4.77015 7.44601 5.97144 7.36111 7.44238C7.49823 10.172 8.21082 12.0667 9.1966 13.2939C9.90501 14.1756 10.7561 14.7108 11.6322 14.9626C12.5069 15.2137 13.4091 15.1835 14.2198 14.9347C15.0662 14.6745 15.8097 14.1766 16.3127 13.5135C16.4401 13.346 16.6688 13.3044 16.8459 13.4165L16.8491 13.4186C16.9508 13.483 17.0142 13.5776 17.0355 13.6977C17.0571 13.8172 17.0306 13.9282 16.9579 14.0243C16.35 14.8246 15.4622 15.4223 14.4565 15.7313C13.5058 16.0236 12.4459 16.0583 11.4165 15.7625C10.3882 15.4671 9.39222 14.8429 8.56828 13.8172C7.58743 12.5962 6.85249 11.2701 6.61006 8.89575C4.62359 9.77456 0.833525 11.1606 0.207022 14.2672C-0.37963 17.1738 0.371398 24.3824 1.32349 27.2396C1.35559 27.3361 1.4679 27.369 1.56824 27.3701L1.56825 27.3704ZM18.4909 7.37815C18.0618 7.73094 17.9957 8.37354 18.3436 8.81371C18.6915 9.25383 18.5548 8.516 18.9839 8.16336C19.4133 7.81056 20.246 7.97619 19.8983 7.53639C19.5501 7.09625 18.9202 7.02568 18.4909 7.37816V7.37815ZM17.701 27.4546H19.6803C20.1949 27.4577 20.532 27.4452 20.3443 26.8641C19.9069 25.5096 18.9632 23.2853 18.7536 21.6273C18.3019 22.6547 18.0777 25.6909 17.8578 26.9798C17.827 27.1617 17.7835 27.3014 17.701 27.4546V27.4546Z" fill="white"/>
</svg>
