<?xml version="1.0" encoding="utf-8"?>
<!-- Uploaded to: SVG Repo, www.svgrepo.com, Generator: SVG Repo Mixer Tools -->
<svg fill="#000000" width="800px" height="800px" viewBox="0 0 32 32" version="1.1" xmlns="http://www.w3.org/2000/svg">
<title>kakao</title>
<path d="M6.908 18.756c-0.002-0.032-0.003-0.069-0.003-0.106 0-0.536 0.246-1.015 0.631-1.329l0.003-0.002c0.459-0.314 1.027-0.502 1.638-0.502 0.069 0 0.138 0.002 0.206 0.007l-0.009-0h1.205v-0.398q0-1.443-1.273-1.443c-0.306 0.002-0.601 0.044-0.882 0.119l0.024-0.006c-0.318 0.080-0.593 0.177-0.855 0.297l0.031-0.013-0.307-0.739c0.289-0.165 0.624-0.303 0.976-0.397l0.030-0.007c0.315-0.088 0.676-0.14 1.049-0.142h0.001q2.206 0 2.205 2.353v3.978h-0.773l-0.125-0.682c-0.285 0.233-0.614 0.429-0.969 0.571l-0.025 0.009c-0.297 0.124-0.642 0.199-1.004 0.205l-0.002 0c-0.044 0.004-0.095 0.007-0.146 0.007-0.902 0-1.634-0.731-1.634-1.634 0-0.051 0.002-0.102 0.007-0.152l-0 0.006zM8.871 19.688c0.159-0.001 0.313-0.022 0.46-0.060l-0.013 0.003c0.184-0.045 0.338-0.096 0.488-0.156l-0.024 0.009c0.168-0.066 0.311-0.14 0.446-0.228l-0.010 0.006c0.136-0.087 0.255-0.179 0.364-0.28l-0.002 0.002v-1.455h-1.087c-0.048-0.004-0.103-0.006-0.159-0.006-0.386 0-0.747 0.108-1.055 0.296l0.009-0.005c-0.234 0.194-0.382 0.485-0.382 0.81 0 0.031 0.001 0.061 0.004 0.092l-0-0.004c-0.006 0.038-0.010 0.083-0.010 0.128 0 0.473 0.384 0.857 0.857 0.857 0.040 0 0.080-0.003 0.119-0.008l-0.005 0zM14.486 20.427h-1.046v-8.785l1.046-0.227zM17.282 14.051l0.819 0.591-2.011 2.523 2.329 2.796-0.807 0.625-2.75-3.365zM19.344 18.756c-0.002-0.032-0.003-0.068-0.003-0.106 0-0.536 0.246-1.015 0.631-1.33l0.003-0.002c0.46-0.314 1.027-0.502 1.639-0.502 0.069 0 0.138 0.002 0.206 0.007l-0.009-0h1.205v-0.398q0-1.443-1.273-1.443c-0.306 0.002-0.602 0.044-0.883 0.119l0.024-0.006c-0.318 0.080-0.592 0.177-0.854 0.297l0.030-0.012-0.307-0.739c0.289-0.164 0.623-0.302 0.976-0.397l0.030-0.007c0.315-0.088 0.677-0.14 1.050-0.142h0.001q2.204 0 2.205 2.353v3.978h-0.773l-0.125-0.682c-0.285 0.233-0.614 0.429-0.97 0.571l-0.025 0.009c-0.297 0.124-0.642 0.199-1.003 0.205l-0.002 0c-0.044 0.004-0.095 0.007-0.147 0.007-0.902 0-1.633-0.731-1.633-1.633 0-0.052 0.002-0.103 0.007-0.153l-0 0.006zM21.307 19.688c0.159-0.001 0.313-0.022 0.46-0.060l-0.013 0.003c0.184-0.045 0.338-0.096 0.488-0.156l-0.024 0.009c0.168-0.066 0.311-0.141 0.446-0.228l-0.010 0.006c0.136-0.087 0.254-0.179 0.364-0.28l-0.002 0.002v-1.455h-1.086c-0.048-0.004-0.104-0.006-0.16-0.006-0.386 0-0.747 0.108-1.054 0.296l0.009-0.005c-0.234 0.194-0.383 0.484-0.383 0.809 0 0.031 0.001 0.062 0.004 0.092l-0-0.004c-0.006 0.038-0.010 0.083-0.010 0.128 0 0.473 0.384 0.857 0.857 0.857 0.040 0 0.080-0.003 0.119-0.008l-0.005 0zM28.222 14.108c0.039-0.002 0.085-0.003 0.131-0.003 0.754 0 1.432 0.325 1.901 0.842l0.002 0.002c0.466 0.594 0.747 1.351 0.747 2.175 0 0.083-0.003 0.165-0.008 0.246l0.001-0.011c0.005 0.069 0.008 0.149 0.008 0.231 0 0.813-0.279 1.56-0.747 2.152l0.006-0.007c-0.525 0.513-1.244 0.829-2.037 0.829s-1.512-0.316-2.038-0.83l0.001 0.001c-0.465-0.584-0.747-1.332-0.747-2.146 0-0.081 0.003-0.161 0.008-0.24l-0.001 0.011c-0.005-0.070-0.008-0.152-0.008-0.234 0-0.824 0.283-1.583 0.758-2.183l-0.006 0.007c0.472-0.519 1.151-0.844 1.905-0.844 0.044 0 0.087 0.001 0.13 0.003l-0.006-0zM28.222 14.949c-0.021-0.001-0.046-0.002-0.071-0.002-0.488 0-0.92 0.241-1.182 0.611l-0.003 0.005c-0.279 0.454-0.445 1.004-0.445 1.593 0 0.071 0.002 0.142 0.007 0.212l-0.001-0.009c-0.004 0.061-0.007 0.132-0.007 0.204 0 0.579 0.166 1.119 0.452 1.576l-0.007-0.012c0.302 0.366 0.755 0.597 1.262 0.597s0.96-0.231 1.259-0.594l0.002-0.003c0.279-0.445 0.444-0.985 0.444-1.564 0-0.072-0.003-0.143-0.008-0.213l0.001 0.009c0.004-0.061 0.007-0.131 0.007-0.202 0-0.589-0.165-1.139-0.452-1.607l0.008 0.013c-0.268-0.375-0.702-0.616-1.192-0.616-0.027 0-0.053 0.001-0.079 0.002l0.004-0zM2.050 20.427h-1.046v-8.785l1.046-0.227zM4.846 14.051l0.819 0.591-2.012 2.523 2.33 2.796-0.807 0.625-2.75-3.365z"></path>
</svg>