<svg width="1080" height="1080" viewBox="186 180 720 720" fill="none" xmlns="http://www.w3.org/2000/svg">
<path fill-rule="evenodd" clip-rule="evenodd" d="M757 332.397C757 371.624 659.928 403.424 540.183 403.424C420.438 403.424 323.366 371.624 323.366 332.397C323.366 293.171 420.438 261.371 540.183 261.371C659.928 261.371 757 293.171 757 332.397ZM323.366 333.277L323.381 386.361C323.381 416.146 387.492 441.428 475.598 449.885L540.183 624.229L604.767 449.887C692.788 441.44 756.862 416.196 757 386.45V501.958C725.933 517.984 682.374 528.753 634.1 534.66L612.766 594.375C679.139 587.896 732.324 572.78 757 553.559V629.058C706.565 655.075 623.207 667.236 540.2 667.236C457.18 667.236 373.794 655.075 323.366 629.036V553.551C348.032 572.774 401.221 587.892 467.602 594.373L446.268 534.657C397.989 528.748 354.426 517.974 323.366 501.936V333.277ZM540.2 724.911C639.168 724.911 723.834 706.493 757 680.659V743.822C757 745.93 757 747.767 756.999 749.217V749.322C756.998 751.121 756.998 752.303 757 752.633V752.796C756.83 789.437 659.649 819.247 540.198 819.247C420.639 819.247 323.381 789.393 323.381 752.707L323.379 743.822H323.366V680.65C356.521 706.49 441.21 724.911 540.2 724.911Z" fill="#cd2000"/>
</svg>
